<svg width="57" height="57" viewBox="0 0 57 57" fill="none" xmlns="http://www.w3.org/2000/svg">
<path d="M23.75 38H11.875V49.875M33.25 19H45.125V7.125M10.8846 21.3831C12.2163 18.0872 14.4458 15.231 17.3198 13.139C20.1938 11.0471 23.6 9.80286 27.1457 9.54871C30.6913 9.29455 34.235 10.0401 37.378 11.7007C40.521 13.3613 43.1329 15.871 44.921 18.9433M46.1167 35.618C44.7851 38.9139 42.5555 41.7702 39.6815 43.8621C36.8075 45.954 33.4048 47.1967 29.8591 47.4508C26.3135 47.705 22.7669 46.9596 19.6239 45.299C16.4809 43.6383 13.8672 41.1291 12.0791 38.0568" stroke="#F6F7FB" stroke-width="2" stroke-linecap="round" stroke-linejoin="round"/>
</svg>
