<svg width="21" height="21" viewBox="0 0 21 21" fill="none" xmlns="http://www.w3.org/2000/svg">
<path d="M7.87671 6.125C7.8873 4.22185 7.9717 3.19118 8.64403 2.51884C9.41288 1.75 10.6503 1.75 13.1252 1.75L14.0002 1.75C16.4751 1.75 17.7125 1.75 18.4813 2.51884C19.2502 3.28769 19.2502 4.52513 19.2502 7L19.2502 14C19.2502 16.4749 19.2502 17.7123 18.4813 18.4812C17.7125 19.25 16.4751 19.25 14.0002 19.25H13.1252C10.6503 19.25 9.41288 19.25 8.64403 18.4812C7.9717 17.8088 7.8873 16.7781 7.87671 14.875" stroke="#6D6D6D" stroke-width="1.5" stroke-linecap="round"/>
<path d="M13.125 10.5L1.75 10.5M1.75 10.5L4.8125 7.875M1.75 10.5L4.8125 13.125" stroke="#6D6D6D" stroke-width="1.5" stroke-linecap="round" stroke-linejoin="round"/>
</svg>
