<svg width="72" height="72" viewBox="0 0 72 72" fill="none" xmlns="http://www.w3.org/2000/svg">
<circle cx="36" cy="36" r="36" fill="#4A4444"/>
<path d="M30.5 52.5H41.5M36 19.5C29.9249 19.5 25 24.4249 25 30.5C25 32.7266 25.6615 34.7986 26.7988 36.5304C28.5476 39.1933 29.4213 40.524 29.5348 40.7228C30.5445 42.4919 30.3586 41.8679 30.4857 43.9009C30.5 44.1294 30.5 44.4753 30.5 45.1667C30.5 46.1792 31.3208 47 32.3333 47L39.6667 47C40.6792 47 41.5 46.1792 41.5 45.1667C41.5 44.4753 41.5 44.1294 41.5143 43.9009C41.6414 41.8679 41.4544 42.4919 42.4641 40.7228C42.5776 40.524 43.4527 39.1933 45.2016 36.5304C46.3388 34.7986 47.0004 32.7266 47.0004 30.5C47.0004 24.4249 42.0751 19.5 36 19.5Z" stroke="#18B4A6" stroke-width="2" stroke-linecap="round" stroke-linejoin="round"/>
</svg>
