<svg width="66" height="66" viewBox="0 0 66 66" fill="none" xmlns="http://www.w3.org/2000/svg">
<path d="M22 11H19.8005C16.7202 11 15.179 11 14.0024 11.5995C12.9675 12.1268 12.1268 12.9675 11.5995 14.0024C11 15.179 11 16.7202 11 19.8005V22M22 11H44M22 11V5.5M44 11H46.2005C49.2808 11 50.8188 11 51.9953 11.5995C53.0302 12.1268 53.8738 12.9675 54.4011 14.0024C55 15.1778 55 16.7172 55 19.7915V22M44 11V5.5M11 22V46.2005C11 49.2808 11 50.8202 11.5995 51.9967C12.1268 53.0316 12.9675 53.8738 14.0024 54.4011C15.1778 55 16.7172 55 19.7915 55H46.2085C49.2828 55 50.82 55 51.9953 54.4011C53.0302 53.8738 53.8738 53.0316 54.4011 51.9967C55 50.8213 55 49.2841 55 46.2098V22M11 22H55M44 44H44.0055L44.0054 44.0055L44 44.0054V44ZM33 44H33.0055L33.0054 44.0055L33 44.0054V44ZM22 44H22.0055L22.0054 44.0055L22 44.0054V44ZM44.0054 33V33.0055L44 33.0054V33H44.0054ZM33 33H33.0055L33.0054 33.0055L33 33.0054V33ZM22 33H22.0055L22.0054 33.0055L22 33.0054V33Z" stroke="#F6F7FB" stroke-width="2" stroke-linecap="round" stroke-linejoin="round"/>
</svg>
