<svg width="57" height="57" viewBox="0 0 57 57" fill="none" xmlns="http://www.w3.org/2000/svg">
<path d="M9.5 19H47.5M9.5 19V39.9005C9.5 42.5607 9.5 43.8901 10.0177 44.9062C10.4731 45.8 11.1992 46.5274 12.093 46.9828C13.1081 47.5 14.4376 47.5 17.0927 47.5H39.9073C42.5624 47.5 43.89 47.5 44.9051 46.9828C45.7988 46.5274 46.5274 45.8 46.9828 44.9062C47.5 43.8911 47.5 42.5635 47.5 39.9085V19M9.5 19V17.1005C9.5 14.4402 9.5 13.1091 10.0177 12.093C10.4731 11.1992 11.1992 10.4731 12.093 10.0177C13.1091 9.5 14.4402 9.5 17.1005 9.5H19M47.5 19V17.0927C47.5 14.4376 47.5 13.1081 46.9828 12.093C46.5274 11.1992 45.7988 10.4731 44.9051 10.0177C43.889 9.5 42.5607 9.5 39.9005 9.5H38M19 9.5H38M19 9.5V4.75M38 9.5V4.75M35.625 28.5L26.125 38L21.375 33.25" stroke="#F6F7FB" stroke-width="2" stroke-linecap="round" stroke-linejoin="round"/>
</svg>
