<svg width="52" height="39" viewBox="0 0 52 39" fill="none" xmlns="http://www.w3.org/2000/svg">
<path d="M18.9353 0.00656208C18.9353 0.00656208 11.804 0.496562 7.14027 4.24156C7.1184 4.25031 7.09215 4.26344 7.07027 4.27656C6.2609 5.02469 5.65277 6.18406 4.90027 7.84656C4.14777 9.50906 3.35152 11.6484 2.62527 14.0416C1.17715 18.8322 0.00027372 24.7122 0.00027372 30.2466C-0.004101 30.4434 0.0440243 30.6359 0.140274 30.8066C1.77652 33.6809 4.78652 35.4178 7.59527 36.5116C10.404 37.6053 12.9984 38.0428 14.3153 38.0866C14.6871 38.0997 15.0415 37.9291 15.2603 37.6316L17.9903 33.8516C20.1909 34.3722 22.7721 34.7266 25.7603 34.7266C28.7484 34.7266 31.3296 34.3722 33.5303 33.8516L36.2603 37.6316C36.479 37.9291 36.8334 38.0997 37.2053 38.0866C38.5221 38.0428 41.1165 37.6053 43.9253 36.5116C46.734 35.4178 49.744 33.6809 51.3803 30.8066C51.4765 30.6359 51.5246 30.4434 51.5203 30.2466C51.5203 24.7122 50.3434 18.8322 48.8953 14.0416C48.169 11.6484 47.3728 9.50906 46.6203 7.84656C45.8678 6.18406 45.2596 5.02469 44.4503 4.27656C44.4284 4.26344 44.4021 4.25031 44.3803 4.24156C39.7165 0.496562 32.5853 0.00656208 32.5853 0.00656208C32.5021 -0.00218736 32.4234 -0.00218736 32.3403 0.00656208C31.9509 0.0590621 31.6228 0.312813 31.4653 0.671562C31.4653 0.671562 31.0846 1.50719 30.8353 2.70156C28.6521 2.35156 26.8146 2.24656 25.7603 2.24656C24.7059 2.24656 22.8684 2.35156 20.6853 2.70156C20.4359 1.50719 20.0553 0.671562 20.0553 0.671562C19.8628 0.234062 19.4121 -0.0328126 18.9353 0.00656208ZM18.2353 2.42156C18.3184 2.64906 18.3753 2.86344 18.4453 3.12156C15.9209 3.70781 13.1559 4.66594 10.5703 6.27156C10.1634 6.44219 9.89652 6.83594 9.8834 7.27781C9.87465 7.71531 10.124 8.12219 10.5178 8.31469C10.9159 8.50281 11.3884 8.44594 11.7253 8.16156C16.914 4.94594 23.5159 4.48656 25.7603 4.48656C28.0046 4.48656 34.6065 4.94594 39.7953 8.16156C40.1321 8.44594 40.6046 8.50281 41.0028 8.31469C41.3965 8.12219 41.6459 7.71531 41.6371 7.27781C41.624 6.83594 41.3571 6.44219 40.9503 6.27156C38.3646 4.66594 35.5996 3.70781 33.0753 3.12156C33.1453 2.86344 33.2021 2.64906 33.2853 2.42156C34.5628 2.57906 39.5284 3.24844 42.9103 5.92156C43.129 6.12281 43.8903 7.24281 44.5903 8.79156C45.2903 10.3403 46.0253 12.3572 46.7253 14.6716C48.0903 19.1866 49.1928 24.7559 49.2453 29.8616C47.9721 31.9222 45.5834 33.4534 43.1203 34.4116C40.8803 35.2822 38.789 35.6716 37.6953 35.7766L35.8053 33.2216C36.7678 32.9109 37.634 32.5741 38.3953 32.2416C41.2215 30.9991 42.7353 29.6866 42.7353 29.6866C43.199 29.2709 43.2384 28.5578 42.8228 28.0941C42.4071 27.6303 41.694 27.5909 41.2303 28.0066C41.2303 28.0066 40.0578 29.0784 37.4853 30.2116C36.5403 30.6272 35.394 31.0384 34.0903 31.4016C33.7884 31.3666 33.4865 31.4541 33.2503 31.6466C31.1634 32.1541 28.6828 32.4866 25.7603 32.4866C22.8159 32.4866 20.3309 32.1234 18.2353 31.6116C17.999 31.4541 17.7103 31.3884 17.4303 31.4366C16.1221 31.0734 14.9846 30.6272 14.0353 30.2116C11.4628 29.0784 10.2903 28.0066 10.2903 28.0066C10.0365 27.7703 9.68652 27.6697 9.34527 27.7266C8.91215 27.7922 8.5534 28.1028 8.43527 28.5272C8.31277 28.9472 8.45277 29.4022 8.78527 29.6866C8.78527 29.6866 10.299 30.9991 13.1253 32.2416C13.8865 32.5741 14.7528 32.9109 15.7153 33.2216L13.8253 35.7766C12.7315 35.6716 10.6403 35.2822 8.40027 34.4116C5.93715 33.4534 3.5484 31.9222 2.27527 29.8616C2.32777 24.7559 3.43027 19.1866 4.79527 14.6716C5.49527 12.3572 6.23027 10.3403 6.93027 8.79156C7.63027 7.24281 8.39152 6.12281 8.61027 5.92156C11.9921 3.24844 16.9578 2.57906 18.2353 2.42156ZM18.4803 15.6866C15.6234 15.6866 13.4403 18.2809 13.4403 21.2866C13.4403 24.2922 15.6234 26.8866 18.4803 26.8866C21.3371 26.8866 23.5203 24.2922 23.5203 21.2866C23.5203 18.2809 21.3371 15.6866 18.4803 15.6866ZM33.0403 15.6866C30.1834 15.6866 28.0003 18.2809 28.0003 21.2866C28.0003 24.2922 30.1834 26.8866 33.0403 26.8866C35.8971 26.8866 38.0803 24.2922 38.0803 21.2866C38.0803 18.2809 35.8971 15.6866 33.0403 15.6866ZM18.4803 17.9266C19.9546 17.9266 21.2803 19.3441 21.2803 21.2866C21.2803 23.2291 19.9546 24.6466 18.4803 24.6466C17.0059 24.6466 15.6803 23.2291 15.6803 21.2866C15.6803 19.3441 17.0059 17.9266 18.4803 17.9266ZM33.0403 17.9266C34.5146 17.9266 35.8403 19.3441 35.8403 21.2866C35.8403 23.2291 34.5146 24.6466 33.0403 24.6466C31.5659 24.6466 30.2403 23.2291 30.2403 21.2866C30.2403 19.3441 31.5659 17.9266 33.0403 17.9266Z" fill="#18B4A6"/>
</svg>
