<svg width="72" height="72" viewBox="0 0 72 72" fill="none" xmlns="http://www.w3.org/2000/svg">
<circle cx="36" cy="36" r="36" fill="#4A4444"/>
<path d="M19.5001 45.1669C19.5 45.0484 19.5 44.9264 19.5 44.8004V27.2004C19.5 25.1469 19.5 24.1193 19.8996 23.335C20.2512 22.6451 20.8117 22.0846 21.5016 21.733C22.286 21.3334 23.3135 21.3334 25.367 21.3334H46.6337C48.6872 21.3334 49.7134 21.3334 50.4978 21.733C51.1877 22.0846 51.7492 22.6451 52.1007 23.335C52.5 24.1186 52.5 25.1449 52.5 27.1944V44.8057C52.5 45.6949 52.5 46.3912 52.4674 46.9586M19.5001 45.1669C19.5015 46.9788 19.5245 47.9274 19.8996 48.6636C20.2512 49.3535 20.8117 49.9159 21.5016 50.2675C22.2852 50.6667 23.3115 50.6667 25.361 50.6667H46.6399C48.6894 50.6667 49.7142 50.6667 50.4978 50.2675C51.1877 49.9159 51.7492 49.3535 52.1007 48.6636C52.3268 48.22 52.4249 47.699 52.4674 46.9586M19.5001 45.1669L28.2413 34.9688L28.2439 34.966C29.0192 34.0615 29.4074 33.6085 29.868 33.4452C30.2726 33.3018 30.7143 33.3051 31.1168 33.4541C31.5755 33.624 31.9576 34.0821 32.7218 34.9992L37.619 40.8758C38.3264 41.7247 38.6822 42.1516 39.1141 42.323C39.4952 42.4741 39.9154 42.4912 40.3085 42.3751C40.756 42.2431 41.15 41.8492 41.9377 41.0614L42.849 40.1501C43.6511 39.348 44.0522 38.9473 44.5061 38.8163C44.9048 38.7012 45.331 38.7259 45.7145 38.8843C46.1512 39.0646 46.5054 39.5061 47.2139 40.3918L52.4674 46.9586M52.4674 46.9586L52.5 46.9993M41.5 32.3334C40.4875 32.3334 39.6667 31.5126 39.6667 30.5C39.6667 29.4875 40.4875 28.6667 41.5 28.6667C42.5125 28.6667 43.3333 29.4875 43.3333 30.5C43.3333 31.5126 42.5125 32.3334 41.5 32.3334Z" stroke="#18B4A6" stroke-width="2" stroke-linecap="round" stroke-linejoin="round"/>
</svg>
