<svg width="72" height="72" viewBox="0 0 72 72" fill="none" xmlns="http://www.w3.org/2000/svg">
<circle cx="36" cy="36" r="36" fill="#2D2B2B"/>
<g transform="translate(14 14)">
<path d="M22 26.3333V15.3333M22 15.3333L16.5 19M22 15.3333L27.5 19M42.1667 24.5C42.1667 20.4506 38.8826 17.1667 34.8333 17.1667C34.79 17.1667 34.7476 17.1672 34.7045 17.1679C33.8152 10.948 28.4653 6.16667 22 6.16667C16.8725 6.16667 12.447 9.17388 10.3914 13.5204C5.6121 13.8333 1.83333 17.8079 1.83333 22.6664C1.83333 27.7289 5.93714 31.8333 11 31.8333H34.8333C38.8826 31.8333 42.1667 28.5494 42.1667 24.5Z" stroke="#18B4A6" stroke-width="2.5" stroke-linecap="round" stroke-linejoin="round"/>
</g>
</svg>
