<svg width="72" height="72" viewBox="0 0 72 72" fill="none" xmlns="http://www.w3.org/2000/svg">
<circle cx="36" cy="36" r="36" fill="#4A4444"/>
<g clip-path="url(#clip0_1_95)">
<path d="M45.1667 34.1666C45.1667 39.2266 41.06 43.3333 36 43.3333C30.94 43.3333 26.8333 39.2266 26.8333 34.1666H23.1667C23.1667 40.6383 27.9517 45.955 34.1667 46.8533V52.5H37.8333V46.8533C44.0483 45.955 48.8333 40.6383 48.8333 34.1666H45.1667Z" fill="#18B4A6"/>
<path d="M36 39.6666C39.0433 39.6666 41.5 37.21 41.5 34.1666V23.1666C41.5 20.1233 39.0433 17.6666 36 17.6666C32.9567 17.6666 30.5 20.1233 30.5 23.1666V34.1666C30.5 37.21 32.9567 39.6666 36 39.6666ZM34.1667 23.1666C34.1667 22.1583 34.9917 21.3333 36 21.3333C37.0083 21.3333 37.8333 22.1583 37.8333 23.1666V34.1666C37.8333 35.175 37.0083 36 36 36C34.9917 36 34.1667 35.175 34.1667 34.1666V23.1666Z" fill="#18B4A6"/>
<path d="M36 39.6666C39.0433 39.6666 41.5 37.21 41.5 34.1666L37.8333 34.1666C37.8333 35.0833 37.11 36 36 36C34.89 36 34.1667 35.0833 34.1667 34.1666L30.5 34.1666C30.5 37.21 32.9567 39.6666 36 39.6666Z" fill="#18B4A6"/>
</g>
<defs>
<clipPath id="clip0_1_95">
<rect width="44" height="44" fill="white" transform="translate(14 14)"/>
</clipPath>
</defs>
</svg>
