<svg width="66" height="66" viewBox="0 0 66 66" fill="none" xmlns="http://www.w3.org/2000/svg">
<path d="M22 11H19.8005C16.7202 11 15.179 11 14.0024 11.5995C12.9675 12.1268 12.1268 12.9675 11.5995 14.0024C11 15.179 11 16.7202 11 19.8005V46.2005C11 49.2808 11 50.8202 11.5995 51.9967C12.1268 53.0316 12.9675 53.8738 14.0024 54.4011C15.1778 55 16.7172 55 19.7915 55H22M22 11H46.2005C49.2808 11 50.8188 11 51.9953 11.5995C53.0302 12.1268 53.8738 12.9675 54.4011 14.0024C55 15.1778 55 16.7172 55 19.7915V46.2098C55 49.2841 55 50.8213 54.4011 51.9967C53.8738 53.0316 53.0302 53.8738 51.9953 54.4011C50.82 55 49.2828 55 46.2085 55H22M22 11V55M33 30.25H44M33 22H44" stroke="#F6F7FB" stroke-width="2" stroke-linecap="round" stroke-linejoin="round"/>
</svg>
