<svg width="57" height="57" viewBox="0 0 57 57" fill="none" xmlns="http://www.w3.org/2000/svg">
<path d="M23.7505 9.5H17.1005C14.4402 9.5 13.1091 9.5 12.093 10.0177C11.1992 10.4731 10.4731 11.1992 10.0177 12.093C9.5 13.1091 9.5 14.4402 9.5 17.1005V39.9005C9.5 42.5607 9.5 43.8901 10.0177 44.9062C10.4731 45.8 11.1992 46.5274 12.093 46.9828C13.1081 47.5 14.4376 47.5 17.0927 47.5H39.9073C42.5624 47.5 43.89 47.5 44.9051 46.9828C45.7988 46.5274 46.5274 45.7993 46.9828 44.9055C47.5 43.8904 47.5 42.5624 47.5 39.9073V33.25M38 11.875L23.75 26.125V33.25H30.875L45.125 19M38 11.875L45.125 4.75L52.25 11.875L45.125 19M38 11.875L45.125 19" stroke="#F6F7FB" stroke-width="2" stroke-linecap="round" stroke-linejoin="round"/>
</svg>
