<svg width="26" height="26" viewBox="0 0 26 26" fill="none" xmlns="http://www.w3.org/2000/svg">
<path d="M22.2083 6.5H3.7915" stroke="#0E6860" stroke-width="1.5" stroke-linecap="round"/>
<path d="M20.4027 9.20834L19.9045 16.6824C19.7127 19.5585 19.6168 20.9966 18.6797 21.8733C17.7427 22.75 16.3014 22.75 13.4188 22.75H12.581C9.6985 22.75 8.25724 22.75 7.32014 21.8733C6.38305 20.9966 6.28718 19.5585 6.09544 16.6824L5.59717 9.20834" stroke="#0E6860" stroke-width="1.5" stroke-linecap="round"/>
<path d="M10.2915 11.9167L10.8332 17.3333" stroke="#0E6860" stroke-width="1.5" stroke-linecap="round"/>
<path d="M15.7082 11.9167L15.1665 17.3333" stroke="#0E6860" stroke-width="1.5" stroke-linecap="round"/>
<path d="M7.0415 6.5C7.10204 6.5 7.13231 6.5 7.15975 6.4993C8.05181 6.4767 8.83878 5.90948 9.14232 5.07035C9.15166 5.04453 9.16123 5.01582 9.18037 4.95839L9.28555 4.64286C9.37534 4.3735 9.42023 4.23882 9.47978 4.12447C9.71735 3.66824 10.1569 3.35144 10.6648 3.27033C10.7921 3.25 10.9341 3.25 11.218 3.25H14.7816C15.0656 3.25 15.2075 3.25 15.3348 3.27033C15.8428 3.35144 16.2823 3.66824 16.5199 4.12447C16.5794 4.23882 16.6243 4.3735 16.7141 4.64286L16.8193 4.95839C16.8384 5.01574 16.848 5.04455 16.8574 5.07035C17.1609 5.90948 17.9479 6.4767 18.8399 6.4993C18.8674 6.5 18.8976 6.5 18.9582 6.5" stroke="#0E6860" stroke-width="1.5"/>
</svg>
