<svg width="57" height="57" viewBox="0 0 57 57" fill="none" xmlns="http://www.w3.org/2000/svg">
<path d="M40.375 47.5C40.375 43.565 35.0584 40.375 28.5 40.375C21.9416 40.375 16.625 43.565 16.625 47.5M49.875 40.3759C49.875 37.4542 46.944 34.9432 42.75 33.8438M7.125 40.3759C7.125 37.4542 10.056 34.9432 14.25 33.8438M42.75 24.3108C44.2077 23.0061 45.125 21.1102 45.125 19C45.125 15.065 41.935 11.875 38 11.875C36.1752 11.875 34.5105 12.561 33.25 13.6892M14.25 24.3108C12.7923 23.0061 11.875 21.1102 11.875 19C11.875 15.065 15.065 11.875 19 11.875C20.8248 11.875 22.4895 12.561 23.75 13.6892M28.5 33.25C24.565 33.25 21.375 30.06 21.375 26.125C21.375 22.19 24.565 19 28.5 19C32.435 19 35.625 22.19 35.625 26.125C35.625 30.06 32.435 33.25 28.5 33.25Z" stroke="#F6F7FB" stroke-width="2" stroke-linecap="round" stroke-linejoin="round"/>
</svg>
