<svg width="37" height="45" viewBox="0 0 37 45" fill="none" xmlns="http://www.w3.org/2000/svg">
<path d="M18.5 2.5C27.3366 2.5 34.5 9.66344 34.5 18.5C34.5 23.5679 31.5486 28.808 27.4505 33.774C23.4092 38.6737 19.5 42.5 18.5 42.5C17.5 42.5 13.5908 38.6737 9.54951 33.774C5.45138 28.808 2.5 23.5679 2.5 18.5C2.5 9.66344 9.66344 2.5 18.5 2.5Z" stroke="#18B4A6" stroke-width="5" stroke-linecap="round" stroke-linejoin="round"/>
<path d="M18.5 24.5C21.8137 24.5 24.5 21.8137 24.5 18.5C24.5 15.1863 21.8137 12.5 18.5 12.5C15.1863 12.5 12.5 15.1863 12.5 18.5C12.5 21.8137 15.1863 24.5 18.5 24.5Z" stroke="#18B4A6" stroke-width="5" stroke-linecap="round" stroke-linejoin="round"/>
</svg>