<svg width="27" height="27" viewBox="0 0 27 27" fill="none" xmlns="http://www.w3.org/2000/svg">
<path d="M18 19.125C19.864 19.125 21.375 17.614 21.375 15.75V13.5001M21.375 13.5001V9.67328C21.375 9.04445 21.375 8.72955 21.2525 8.48914C21.1446 8.27745 20.9721 8.10548 20.7604 7.99762C20.5198 7.875 20.2052 7.875 19.5751 7.875H17.5501C16.9201 7.875 16.6048 7.875 16.3641 7.99762C16.1525 8.10547 15.9805 8.27745 15.8726 8.48914C15.75 8.72979 15.75 9.04505 15.75 9.67511V11.7001C15.75 12.3302 15.75 12.6448 15.8726 12.8854C15.9805 13.0971 16.1525 13.2696 16.3641 13.3775C16.6046 13.5 16.9194 13.5 17.5483 13.5L21.375 13.5001ZM7.875 19.125C9.73896 19.125 11.25 17.614 11.25 15.75L11.25 13.5001M11.25 13.5001V9.67327C11.25 9.04444 11.25 8.72955 11.1275 8.48914C11.0196 8.27745 10.8471 8.10548 10.6354 7.99762C10.3948 7.875 10.0802 7.875 9.45011 7.875H7.42511C6.79505 7.875 6.47979 7.875 6.23914 7.99762C6.02745 8.10547 5.85548 8.27745 5.74762 8.48914C5.625 8.72979 5.625 9.04505 5.625 9.67511V11.7001C5.625 12.3302 5.625 12.6448 5.74762 12.8854C5.85547 13.0971 6.02745 13.2696 6.23914 13.3775C6.47955 13.5 6.79444 13.5 7.42326 13.5L11.25 13.5001Z" stroke="currentColor" stroke-width="2" stroke-linecap="round" stroke-linejoin="round"/>
</svg>
