<svg width="27" height="27" viewBox="0 0 27 27" fill="none" xmlns="http://www.w3.org/2000/svg">
<path d="M13.5005 13.5001C14.5079 13.5001 15.4968 13.7165 16.3639 14.1267C16.7556 14.3121 17.1164 14.5341 17.4385 14.7867C17.8295 15.0933 18.1639 15.4451 18.43 15.8323C18.9153 16.5385 19.1546 17.3358 19.1229 18.1413C19.0913 18.9469 18.7897 19.7308 18.2499 20.4112C17.7102 21.0917 16.9519 21.6434 16.0543 22.0092C15.1567 22.3751 14.1527 22.5419 13.1473 22.4913C12.142 22.4407 11.1724 22.1747 10.3392 21.7217C9.50605 21.2687 8.84005 20.6453 8.41113 19.9161M13.5005 13.5001H4.5M13.5005 13.5001H22.5M18.5898 7.08432C18.1609 6.35512 17.495 5.73145 16.6619 5.27847C15.8287 4.82548 14.8586 4.55948 13.8532 4.50887C12.8478 4.45827 11.8438 4.62477 10.9462 4.99065C10.0486 5.35652 9.29039 5.90856 8.75061 6.589C8.21083 7.26945 7.90939 8.05371 7.87775 8.85921C7.86848 9.09521 7.88252 9.33013 7.91914 9.56266" stroke="currentColor" stroke-width="2" stroke-linecap="round" stroke-linejoin="round"/>
</svg>
